# xmcd
#
# Track frame offsets: 
#        150
#        13268
#        25715
#        36214
#        49849
#        62057
#        72797
#        82542
#        95799
#        108586
#        128461
#        146923
#        160864
#        175047
#        188899
#        204072
#        217862
#        229437
#        242198
#        256600
#        270190
#
# Disc length: 3770 seconds
#
# Revision: 0
# Processed by: cddbd v1.5.2PL0 Copyright (c) Steve Scherf et al.
# Submitted via: ExactAudioCopyFreeDBPlugin 1.0
#
DISCID=140eb815
DTITLE=Various Artist - Blues
DYEAR=1900
DGENRE=Blues
TTITLE0=Howlin' Wolf - Evil (is going on)
TTITLE1=John Lee Hooker - I'm In The Mood
TTITLE2=Ray Charles - Sitting On Top Of The World
TTITLE3=Muddy Waters - Rollin' And Tumblin'
TTITLE4=Little Junior Parker - Driving wheel
TTITLE5=Jimmy Reed - Baby, What You Want Me To Do?
TTITLE6=Sam Lightnin' Hopkins - Coffee House Blues
TTITLE7=Percy Mayfield - Please Send Me Someone To Love
TTITLE8=Jimmy Rogers - That's all right
TTITLE9=Otis Spann - Bad condition
TTITLE10=Champion Jack Dupree - Goin' Down Slow
TTITLE11=Eddie Boyd - Cool kind treatment
TTITLE12=Little Walter (Marion Walter Jacobs) - Blues with a feeling
TTITLE13=Memphis Slim - Slim's Blues
TTITLE14=Sonny Terry and Brownie McGhee - Bad Blood
TTITLE15=T-Bone Walker - Call It Stormy Monday (But Tuesday Is Just As
TTITLE15=Bad)
TTITLE16=Tampa Red - It Hurts Me Too
TTITLE17=Louis Jordan (1908-1975) - Let The Good Times Roll
TTITLE18=Blind Boy Fuller - Homesick blues
TTITLE19=Robert Petway - Catfish blues
TTITLE20=Robert Johnson - Cross Road Blues
EXTD=
EXTT0=
EXTT1=
EXTT2=
EXTT3=
EXTT4=
EXTT5=
EXTT6=
EXTT7=
EXTT8=
EXTT9=
EXTT10=
EXTT11=
EXTT12=
EXTT13=
EXTT14=
EXTT15=
EXTT16=
EXTT17=
EXTT18=
EXTT19=
EXTT20=
PLAYORDER=
